<?xml version="1.0" standalone="no"?>
<!DOCTYPE svg PUBLIC "-//W3C//DTD SVG 20010904//EN"
 "http://www.w3.org/TR/2001/REC-SVG-20010904/DTD/svg10.dtd">
<svg version="1.0" xmlns="http://www.w3.org/2000/svg"
 width="376.000000pt" height="278.000000pt" viewBox="0 0 376.000000 278.000000"
 preserveAspectRatio="xMidYMid meet">

<g transform="translate(0.000000,278.000000) scale(0.100000,-0.100000)"
fill="#000000" stroke="none">
<path d="M1438 2622 c-31 -12 -939 -835 -954 -864 -19 -36 -18 -61 3 -87 21
-24 1454 -730 1499 -738 57 -10 124 47 124 104 0 10 -126 362 -280 783 -216
589 -287 770 -306 788 -25 22 -54 27 -86 14z"/>
<path d="M1841 2204 c-24 -19 -31 -34 -31 -60 0 -22 91 -252 256 -646 141
-337 260 -620 265 -629 12 -23 64 -42 93 -35 27 7 59 42 547 611 399 465 379
440 379 479 0 49 -23 73 -83 85 -52 11 -1374 221 -1388 221 -4 0 -21 -12 -38
-26z"/>
<path d="M626 1409 c-14 -11 -30 -28 -35 -38 -15 -27 -201 -841 -201 -877 0
-97 32 -112 240 -114 85 0 191 -3 235 -5 233 -11 1544 -38 1567 -32 39 10 86
62 99 110 13 49 0 103 -34 142 -25 28 -1786 835 -1822 835 -12 0 -34 -9 -49
-21z"/>
</g>
</svg>
